# xmcd CD database file
#
# Track frame offsets:
#	182
#	84992
#	127112
#	168527
#	209400
#	291355
#
# Disc length: 4456 seconds
#
# Revision: 4
# Processed by: cddbd v1.5.1PL0 Copyright (c) Steve Scherf et al.
# Submitted via: CDex 1.51
#
DISCID=58116606
DTITLE=Jens Zygar - Gongs
DYEAR=1991
DGENRE=New Age
TTITLE0=focus 14
TTITLE1=Earth Link
TTITLE2=Breathe in Gold
TTITLE3=The Darkest Place
TTITLE4=Time
TTITLE5=The Cosmic Heart
EXTD=YEAR: 1991
EXTT0=
EXTT1=
EXTT2=
EXTT3=
EXTT4=
EXTT5=
PLAYORDER=
